<?xml version="1.0" encoding="utf-8"?>

<!DOCTYPE svg PUBLIC "-//W3C//DTD SVG 1.1//EN" "http://www.w3.org/Graphics/SVG/1.1/DTD/svg11.dtd">
<!-- Uploaded to: SVG Repo, www.svgrepo.com, Generator: SVG Repo Mixer Tools -->
<svg version="1.1" id="_x32_" xmlns="http://www.w3.org/2000/svg" xmlns:xlink="http://www.w3.org/1999/xlink" 
	 viewBox="0 0 512 512"  xml:space="preserve">
<style type="text/css">
	.st0{fill:#ffffff;}
</style>
<g>
	<rect x="240.453" class="st0" width="31.095" height="72.283"/>
	<rect x="240.453" y="439.717" class="st0" width="31.095" height="72.283"/>
	
		<rect x="90.629" y="62.59" transform="matrix(0.5878 0.809 -0.809 0.5878 115.4628 -70.3519)" class="st0" width="72.287" height="31.091"/>
	<polygon class="st0" points="351.406,413.764 393.898,472.242 419.049,453.965 376.557,395.495 	"/>
	<polygon class="st0" points="7.725,191.69 76.464,214.014 86.079,184.449 17.333,162.116 	"/>
	
		<rect x="428.948" y="308.4" transform="matrix(-0.9511 -0.3089 0.3089 -0.9511 807.3594 775.731)" class="st0" width="72.291" height="31.095"/>
	<polygon class="st0" points="7.725,320.327 17.333,349.901 86.079,327.568 76.464,297.994 	"/>
	<polygon class="st0" points="504.275,191.69 494.667,162.116 425.921,184.457 435.536,214.03 	"/>
	<polygon class="st0" points="92.951,453.981 118.102,472.259 160.594,413.78 135.443,395.495 	"/>
	<polygon class="st0" points="351.422,98.244 376.573,116.514 419.049,58.052 393.898,39.766 	"/>
	<path class="st0" d="M106.764,255.996c0.009,82.433,66.807,149.232,149.24,149.248c82.433-0.016,149.239-66.814,149.248-149.248
		c-0.008-82.433-66.814-149.231-149.248-149.248C173.571,106.764,106.773,173.562,106.764,255.996z M259.115,138.002
		c31.422,0.82,59.69,13.72,80.426,34.456c21.422,21.413,34.616,50.861,34.616,83.537c0,32.684-13.194,62.116-34.616,83.546
		c-20.736,20.719-49.005,33.637-80.426,34.456V138.002z"/>
</g>
</svg>
